<?xml version="1.0" encoding="utf-8"?>
<!-- Uploaded to: SVG Repo, www.svgrepo.com, Generator: SVG Repo Mixer Tools -->
<svg fill="#000000" width="800px" height="800px" viewBox="-6 0 32 32" version="1.1" xmlns="http://www.w3.org/2000/svg">
<title>vimeo</title>
<path d="M4.063 6.063h12.188c2.25 0 4.063 1.813 4.063 4.063v12.188c0 2.25-1.813 4.063-4.063 4.063h-12.188c-2.25 0-4.063-1.813-4.063-4.063v-12.188c0-2.25 1.813-4.063 4.063-4.063zM16.813 12.813c0.125-0.625 0.125-1.281-0.281-1.781-0.531-0.656-1.688-0.688-2.469-0.563-0.625 0.094-2.781 1.031-3.531 3.313 1.313-0.094 2 0.094 1.875 1.531-0.063 0.625-0.375 1.281-0.719 1.906-0.375 0.719-1.125 2.156-2.063 1.125-0.875-0.938-0.813-2.688-1-3.875-0.125-0.656-0.25-1.5-0.438-2.188-0.188-0.563-0.625-1.281-1.156-1.438-0.563-0.156-1.25 0.094-1.656 0.344-1.313 0.75-2.313 1.844-3.438 2.75v0.094c0.219 0.188 0.281 0.563 0.625 0.594 0.781 0.125 1.5-0.719 2.031 0.156 0.313 0.531 0.406 1.094 0.594 1.688 0.281 0.75 0.5 1.594 0.719 2.469 0.344 1.469 0.813 3.719 2.094 4.25 0.656 0.281 1.656-0.094 2.156-0.406 1.344-0.781 2.406-1.938 3.281-3.125 2.063-2.781 3.219-5.938 3.375-6.844z"></path>
</svg>